<mxfile host="Electron" modified="2024-03-23T17:29:27.944Z" agent="Mozilla/5.0 (Windows NT 10.0; Win64; x64) AppleWebKit/537.36 (KHTML, like Gecko) draw.io/23.1.5 Chrome/120.0.6099.109 Electron/28.1.0 Safari/537.36" etag="eZGJY9nT0SIQexT2w2Q5" version="23.1.5" type="device">
  <diagram name="Página-1" id="ED3x_FsVrnTkBY_DrVZz">
    <mxGraphModel dx="1420" dy="830" grid="1" gridSize="10" guides="1" tooltips="1" connect="1" arrows="1" fold="1" page="1" pageScale="1" pageWidth="827" pageHeight="1169" background="#CCE5FF" math="0" shadow="0">
      <root>
        <mxCell id="0" />
        <mxCell id="1" parent="0" />
        <mxCell id="WZnb3pjcqQn9NVBNQeLR-1" value="&lt;p style=&quot;line-height: 80%;&quot;&gt;&lt;b style=&quot;font-size: 16px;&quot;&gt;&lt;font style=&quot;font-size: 16px;&quot; color=&quot;#000000&quot;&gt;11. Hacer un programa para ingresar por teclado una cantidad de minutos y&lt;br&gt;&lt;br&gt;mostrar por pantalla a cuántos días, horas y minutos equivalen.&lt;/font&gt;&lt;/b&gt;&lt;/p&gt;&lt;p style=&quot;line-height: 80%;&quot;&gt;&lt;b style=&quot;font-size: 16px;&quot;&gt;&lt;font style=&quot;font-size: 16px;&quot; color=&quot;#000000&quot;&gt;&lt;br&gt;&lt;br&gt;Ejemplo A: si se ingresan 1520 minutos el programa mostrará por pantalla que&lt;br&gt;&lt;br&gt;equivalen a 1 día, 1 hora y 20 minutos.&lt;br&gt;&lt;br&gt;Ejemplo B: si se ingresan 480 minutos el programa mostrará por pantalla que&lt;br&gt;&lt;br&gt;equivalen a 0 día, 8 horas y 0 minutos.&lt;/font&gt;&lt;/b&gt;&lt;/p&gt;" style="text;whiteSpace=wrap;html=1;" vertex="1" parent="1">
          <mxGeometry x="70" y="10" width="700" height="190" as="geometry" />
        </mxCell>
        <mxCell id="WZnb3pjcqQn9NVBNQeLR-23" value="" style="group;aspect=fixed;" vertex="1" connectable="0" parent="1">
          <mxGeometry x="214" y="240" width="277" height="380" as="geometry" />
        </mxCell>
        <mxCell id="WZnb3pjcqQn9NVBNQeLR-3" value="" style="strokeWidth=2;html=1;shape=mxgraph.flowchart.start_2;whiteSpace=wrap;rounded=0;labelBackgroundColor=none;strokeColor=#000000;align=center;verticalAlign=middle;fontFamily=Helvetica;fontSize=12;fontColor=default;fillColor=#d5e8d4;" vertex="1" parent="WZnb3pjcqQn9NVBNQeLR-23">
          <mxGeometry x="116" width="40" height="40" as="geometry" />
        </mxCell>
        <mxCell id="WZnb3pjcqQn9NVBNQeLR-5" value="" style="shape=trapezoid;perimeter=trapezoidPerimeter;whiteSpace=wrap;html=1;fixedSize=1;rounded=0;labelBackgroundColor=none;strokeColor=#121211;strokeWidth=2;align=center;verticalAlign=middle;fontFamily=Helvetica;fontSize=12;fontColor=default;fillColor=#d5e8d4;direction=west;container=1;" vertex="1" parent="WZnb3pjcqQn9NVBNQeLR-23">
          <mxGeometry x="66" y="70" width="140" height="40" as="geometry">
            <mxRectangle x="-1020" y="-650" width="50" height="40" as="alternateBounds" />
          </mxGeometry>
        </mxCell>
        <mxCell id="WZnb3pjcqQn9NVBNQeLR-11" value="&lt;font color=&quot;#000000&quot;&gt;&lt;span style=&quot;font-size: 16px;&quot;&gt;&lt;b&gt;minutos&lt;/b&gt;&lt;/span&gt;&lt;/font&gt;" style="text;strokeColor=none;align=center;fillColor=none;html=1;verticalAlign=middle;whiteSpace=wrap;rounded=0;" vertex="1" parent="WZnb3pjcqQn9NVBNQeLR-5">
          <mxGeometry x="20" width="100" height="40" as="geometry" />
        </mxCell>
        <mxCell id="WZnb3pjcqQn9NVBNQeLR-6" value="" style="shape=trapezoid;perimeter=trapezoidPerimeter;whiteSpace=wrap;html=1;fixedSize=1;rounded=0;labelBackgroundColor=none;strokeColor=#0F140C;strokeWidth=2;align=center;verticalAlign=middle;fontFamily=Helvetica;fontSize=12;fontColor=default;fillColor=#d5e8d4;" vertex="1" parent="WZnb3pjcqQn9NVBNQeLR-23">
          <mxGeometry x="12" y="260" width="260" height="40" as="geometry" />
        </mxCell>
        <mxCell id="WZnb3pjcqQn9NVBNQeLR-7" value="" style="rounded=0;whiteSpace=wrap;html=1;labelBackgroundColor=none;strokeColor=#0f100e;strokeWidth=2;align=center;verticalAlign=middle;fontFamily=Helvetica;fontSize=12;fontColor=default;fillColor=#d5e8d4;" vertex="1" parent="WZnb3pjcqQn9NVBNQeLR-23">
          <mxGeometry y="140" width="272" height="90" as="geometry" />
        </mxCell>
        <mxCell id="WZnb3pjcqQn9NVBNQeLR-8" value="&lt;b&gt;&lt;font color=&quot;#000000&quot; style=&quot;font-size: 16px;&quot;&gt;I&lt;/font&gt;&lt;/b&gt;" style="text;strokeColor=none;align=center;fillColor=none;html=1;verticalAlign=middle;whiteSpace=wrap;rounded=0;" vertex="1" parent="WZnb3pjcqQn9NVBNQeLR-23">
          <mxGeometry x="106" y="5" width="60" height="30" as="geometry" />
        </mxCell>
        <mxCell id="WZnb3pjcqQn9NVBNQeLR-10" value="" style="group" vertex="1" connectable="0" parent="WZnb3pjcqQn9NVBNQeLR-23">
          <mxGeometry x="106" y="340" width="60" height="40" as="geometry" />
        </mxCell>
        <mxCell id="WZnb3pjcqQn9NVBNQeLR-4" value="" style="strokeWidth=2;html=1;shape=mxgraph.flowchart.start_2;whiteSpace=wrap;rounded=0;labelBackgroundColor=none;strokeColor=#000000;align=center;verticalAlign=middle;fontFamily=Helvetica;fontSize=12;fontColor=default;fillColor=#d5e8d4;aspect=fixed;" vertex="1" parent="WZnb3pjcqQn9NVBNQeLR-10">
          <mxGeometry x="10" width="40" height="40" as="geometry" />
        </mxCell>
        <mxCell id="WZnb3pjcqQn9NVBNQeLR-9" value="&lt;b&gt;&lt;font color=&quot;#000000&quot; style=&quot;font-size: 16px;&quot;&gt;F&lt;/font&gt;&lt;/b&gt;" style="text;strokeColor=none;align=center;fillColor=none;html=1;verticalAlign=middle;whiteSpace=wrap;rounded=0;aspect=fixed;" vertex="1" parent="WZnb3pjcqQn9NVBNQeLR-10">
          <mxGeometry y="5" width="60" height="30" as="geometry" />
        </mxCell>
        <mxCell id="WZnb3pjcqQn9NVBNQeLR-22" style="edgeStyle=orthogonalEdgeStyle;rounded=0;sketch=1;hachureGap=4;jiggle=2;curveFitting=1;orthogonalLoop=1;jettySize=auto;html=1;exitX=0.5;exitY=1;exitDx=0;exitDy=0;entryX=0.617;entryY=0.967;entryDx=0;entryDy=0;entryPerimeter=0;" edge="1" parent="WZnb3pjcqQn9NVBNQeLR-10" source="WZnb3pjcqQn9NVBNQeLR-9" target="WZnb3pjcqQn9NVBNQeLR-9">
          <mxGeometry relative="1" as="geometry" />
        </mxCell>
        <mxCell id="WZnb3pjcqQn9NVBNQeLR-16" value="&lt;div style=&quot;text-align: left;&quot;&gt;&lt;b style=&quot;background-color: initial;&quot;&gt;&lt;font color=&quot;#000000&quot; style=&quot;font-size: 15px;&quot;&gt;dias = minutos / 1440&lt;/font&gt;&lt;/b&gt;&lt;/div&gt;&lt;b&gt;&lt;div style=&quot;text-align: left;&quot;&gt;&lt;b style=&quot;background-color: initial;&quot;&gt;&lt;font color=&quot;#000000&quot; style=&quot;font-size: 15px;&quot;&gt;horas = minutos / 60&lt;/font&gt;&lt;/b&gt;&lt;/div&gt;&lt;div style=&quot;text-align: left;&quot;&gt;&lt;b style=&quot;background-color: initial;&quot;&gt;&lt;font color=&quot;#000000&quot; style=&quot;font-size: 15px;&quot;&gt;horas = horas % 24&lt;/font&gt;&lt;/b&gt;&lt;/div&gt;&lt;font color=&quot;#000000&quot; style=&quot;font-size: 15px;&quot;&gt;&lt;div style=&quot;text-align: left;&quot;&gt;&lt;b style=&quot;background-color: initial; color: rgb(240, 240, 240); font-size: 12px;&quot;&gt;&lt;font color=&quot;#000000&quot; style=&quot;font-size: 15px;&quot;&gt;resto_minutos = minutos % 60&lt;/font&gt;&lt;/b&gt;&lt;/div&gt;&lt;/font&gt;&lt;/b&gt;" style="text;strokeColor=none;align=center;fillColor=none;html=1;verticalAlign=middle;whiteSpace=wrap;rounded=0;" vertex="1" parent="WZnb3pjcqQn9NVBNQeLR-23">
          <mxGeometry x="11" y="125" width="250" height="120" as="geometry" />
        </mxCell>
        <mxCell id="WZnb3pjcqQn9NVBNQeLR-17" value="&lt;b&gt;&lt;font color=&quot;#000000&quot; style=&quot;font-size: 15px;&quot;&gt;dias, horas, resto_minutos&lt;/font&gt;&lt;/b&gt;" style="text;strokeColor=none;align=center;fillColor=none;html=1;verticalAlign=middle;whiteSpace=wrap;rounded=0;" vertex="1" parent="WZnb3pjcqQn9NVBNQeLR-23">
          <mxGeometry x="7" y="257.5" width="270" height="45" as="geometry" />
        </mxCell>
        <mxCell id="WZnb3pjcqQn9NVBNQeLR-18" value="" style="line;strokeWidth=2;direction=south;html=1;hachureGap=4;strokeColor=#000000;" vertex="1" parent="WZnb3pjcqQn9NVBNQeLR-23">
          <mxGeometry x="131" y="110" width="10" height="30" as="geometry" />
        </mxCell>
        <mxCell id="WZnb3pjcqQn9NVBNQeLR-19" value="" style="line;strokeWidth=2;direction=south;html=1;hachureGap=4;strokeColor=#000000;" vertex="1" parent="WZnb3pjcqQn9NVBNQeLR-23">
          <mxGeometry x="131" y="300" width="10" height="40" as="geometry" />
        </mxCell>
        <mxCell id="WZnb3pjcqQn9NVBNQeLR-20" value="" style="line;strokeWidth=2;direction=south;html=1;hachureGap=4;strokeColor=#000000;" vertex="1" parent="WZnb3pjcqQn9NVBNQeLR-23">
          <mxGeometry x="131" y="230" width="10" height="30" as="geometry" />
        </mxCell>
        <mxCell id="WZnb3pjcqQn9NVBNQeLR-21" value="" style="line;strokeWidth=2;direction=south;html=1;hachureGap=4;strokeColor=#000000;" vertex="1" parent="WZnb3pjcqQn9NVBNQeLR-23">
          <mxGeometry x="131" y="40" width="10" height="30" as="geometry" />
        </mxCell>
      </root>
    </mxGraphModel>
  </diagram>
</mxfile>
